<svg width="128" height="128" xmlns="http://www.w3.org/2000/svg" xmlns:xlink="http://www.w3.org/1999/xlink" xml:space="preserve" overflow="hidden"><defs><clipPath id="clip0"><rect x="592" y="312" width="128" height="128"/></clipPath></defs><g clip-path="url(#clip0)" transform="translate(-592 -312)"><path d="M706 412.8 689.333 396.133C687.067 393.867 684 393.067 681.067 393.6L675.2 387.733C680.4 381.067 683.467 372.533 683.467 363.467 683.467 341.467 665.467 323.467 643.467 323.467 621.467 323.467 603.467 341.467 603.467 363.467 603.467 385.467 621.467 403.467 643.467 403.467 652.533 403.467 660.933 400.4 667.733 395.2L673.6 401.067C673.067 404 673.867 407.067 676.133 409.333L692.8 426C694.667 427.867 697.067 428.8 699.467 428.8 701.867 428.8 704.267 427.867 706.133 426 709.6 422.267 709.6 416.4 706 412.8ZM643.333 395.333C625.733 395.333 611.333 380.933 611.333 363.333 611.333 345.733 625.733 331.333 643.333 331.333 660.933 331.333 675.333 345.733 675.333 363.333 675.333 380.933 660.933 395.333 643.333 395.333Z" fill="#2176FF"/></g></svg>